# xmcd
#
# Track frame offsets: 
#        150
#        11084
#        21534
#        30242
#        40280
#        52066
#        65462
#        76742
#        86445
#        104334
#        116555
#        132733
#        146079
#        162775
#        178195
#        195390
#        217583
#        224872
#        243423
#        256190
#
# Disc length: 3602 seconds
#
# Revision: 0
# Processed by: cddbd v1.5.2PL0 Copyright (c) Steve Scherf et al.
# Submitted via: ExactAudioCopyFreeDBPlugin 1.0
#
DISCID=1d0e1014
DTITLE=Anthony Burger - 20 Southern Gospel Piano Favorites
DYEAR=1900
DGENRE=Gospel
TTITLE0=Keep On The Firing Line
TTITLE1=I Sing The Mighty Power
TTITLE2=Just A Closer Walk
TTITLE3=Hymn Medley: Amazing Grace, My Tribute, His Truth Keeps Marchi
TTITLE3=ng On, Hallelujah Chorus, Doxology
TTITLE4=Looking For A City
TTITLE5=In The Garden
TTITLE6=In That The Old Ship Zion
TTITLE7=Just Wait Till You See My New Home
TTITLE8=Sweet Beulah Land
TTITLE9=Give Me That Old Time Religion
TTITLE10=It Is Well
TTITLE11=I'm Standing On The Solid Rock
TTITLE12=Child, Child
TTITLE13=At The Cross
TTITLE14=It Is No Secret
TTITLE15=I'd Rather Have Jesus
TTITLE16=Nothing But The Blood
TTITLE17=Undivided
TTITLE18=Tribute To The Armed Forces
TTITLE19=When We All Get To Heavan
EXTD=
EXTT0=
EXTT1=
EXTT2=
EXTT3=
EXTT4=
EXTT5=
EXTT6=
EXTT7=
EXTT8=
EXTT9=
EXTT10=
EXTT11=
EXTT12=
EXTT13=
EXTT14=
EXTT15=
EXTT16=
EXTT17=
EXTT18=
EXTT19=
PLAYORDER=
